<svg xmlns="http://www.w3.org/2000/svg" xmlns:xlink="http://www.w3.org/1999/xlink" width="240" height="64" viewBox="0 0 240 64" role="img" aria-labelledby="title">
  <title id="title">Try in Codex</title>
  <defs>
    <linearGradient id="surface" x1="0" y1="0" x2="0" y2="1"><stop stop-color="#282633"/><stop offset="1" stop-color="#14141B"/></linearGradient>
    <linearGradient id="rim" x1="0" y1="0" x2="0" y2="1"><stop stop-color="#69607C"/><stop offset="1" stop-color="#14141B"/></linearGradient>
    <linearGradient id="shine"><stop stop-color="#C5B8FF" stop-opacity="0"/><stop offset=".5" stop-color="#C5B8FF" stop-opacity=".5"/><stop offset="1" stop-color="#C5B8FF" stop-opacity="0"/></linearGradient>
  </defs>
  <rect x="2" y="6" width="236" height="56" rx="13" fill="#000" opacity=".12"/>
  <rect x="2" y="4" width="236" height="56" rx="13" fill="#000" opacity=".16"/>
  <rect x="1.5" y="2.5" width="237" height="57" rx="13" fill="url(#surface)" stroke="url(#rim)"/>
  <path d="M16 3h208" stroke="url(#shine)"/>
  <svg x="14" y="18" width="28" height="28" viewBox="194 194 636 636">
    <defs>
      <mask id="terminal-cutout" maskUnits="userSpaceOnUse" x="194" y="194" width="636" height="636">
        <rect x="194" y="194" width="636" height="636" fill="white"/>
        <path d="M374 431l45 85-45 83M533 599h116" fill="none" stroke="black" stroke-width="48" stroke-linecap="round" stroke-linejoin="round"/>
      </mask>
    </defs>
    <path d="M581 253C500 173 354 198 322 325C203 354 164 477 251 581C215 707 325 805 442 772C533 861 678 807 702 702C829 665 852 531 773 443C805 311 700 223 581 253Z" fill="#FFFFFF" mask="url(#terminal-cutout)"/>
  </svg>
  <path d="M53.5 20v24" stroke="#C5B8FF" stroke-opacity=".18"/>
  <text x="66" y="38" font-family="-apple-system, BlinkMacSystemFont, 'Segoe UI', Helvetica, Arial, sans-serif" font-size="16" font-weight="500" letter-spacing="-.25" fill="#FAF8F5">Try in <tspan font-weight="650">Codex</tspan></text>
  <path d="M214 32h12m-5-5 5 5-5 5" fill="none" stroke="#C5B8FF" stroke-width="1.5" stroke-linecap="round" stroke-linejoin="round"/>
</svg>
